# xmcd CD database file
#
# Track frame offsets:
#	150
#	15698
#	31123
#	63939
#	85330
#	104222
#	139919
#	156470
#	176700
#	203495
#	219197
#
# Disc length: 3172 seconds
#
# Revision: 2
# Processed by: cddbd v1.5.2PL0 Copyright (c) Steve Scherf et al.
# Submitted via: CDex 1.70beta2
#
DISCID=960c620b
DTITLE=Gargoyle - 封印～who in？～ [DISK 2]
DYEAR=1900
DGENRE=Heavy Metal
TTITLE0=消滅
TTITLE1=Genon
TTITLE2=省略形達よ
TTITLE3=空は青
TTITLE4=潜在的幻狂覚無差別覚醒菌感染者
TTITLE5=僕らはやがて水とかえる
TTITLE6=baby cat
TTITLE7=B・B
TTITLE8=風の街
TTITLE9=BALA・薔薇・VALA
TTITLE10=open the gate
EXTD=
EXTT0=
EXTT1=
EXTT2=
EXTT3=
EXTT4=
EXTT5=
EXTT6=
EXTT7=
EXTT8=
EXTT9=
EXTT10=
PLAYORDER=
